<mxfile host="app.diagrams.net" agent="Mozilla/5.0 (Windows NT 10.0; Win64; x64) AppleWebKit/537.36 (KHTML, like Gecko) Chrome/128.0.0.0 Safari/537.36" version="24.7.12" pages="2">
  <diagram id="C5RBs43oDa-KdzZeNtuy" name="Page-1">
    <mxGraphModel dx="3014" dy="1383" grid="1" gridSize="10" guides="1" tooltips="1" connect="1" arrows="1" fold="1" page="1" pageScale="1" pageWidth="827" pageHeight="1169" math="0" shadow="0">
      <root>
        <mxCell id="WIyWlLk6GJQsqaUBKTNV-0" />
        <mxCell id="WIyWlLk6GJQsqaUBKTNV-1" parent="WIyWlLk6GJQsqaUBKTNV-0" />
        <mxCell id="sgsbGHKke1k9-sHy4_dt-1" style="edgeStyle=none;curved=1;rounded=0;orthogonalLoop=1;jettySize=auto;html=1;fontSize=12;startSize=8;endSize=8;labelBackgroundColor=none;strokeColor=#A8201A;fontColor=default;sketch=1;curveFitting=1;jiggle=2;" parent="WIyWlLk6GJQsqaUBKTNV-1" target="sgsbGHKke1k9-sHy4_dt-2" edge="1">
          <mxGeometry relative="1" as="geometry">
            <mxPoint x="210" y="650" as="targetPoint" />
            <mxPoint x="210" y="520" as="sourcePoint" />
          </mxGeometry>
        </mxCell>
        <mxCell id="sgsbGHKke1k9-sHy4_dt-3" style="edgeStyle=none;curved=1;rounded=0;orthogonalLoop=1;jettySize=auto;html=1;fontSize=12;startSize=8;endSize=8;labelBackgroundColor=none;strokeColor=#A8201A;fontColor=default;sketch=1;curveFitting=1;jiggle=2;" parent="WIyWlLk6GJQsqaUBKTNV-1" source="sgsbGHKke1k9-sHy4_dt-2" edge="1">
          <mxGeometry relative="1" as="geometry">
            <mxPoint x="210" y="750" as="targetPoint" />
          </mxGeometry>
        </mxCell>
        <mxCell id="sgsbGHKke1k9-sHy4_dt-2" value="User Input" style="rounded=1;whiteSpace=wrap;html=1;labelBackgroundColor=none;fillColor=#FAE5C7;strokeColor=#0F8B8D;fontColor=#143642;sketch=1;curveFitting=1;jiggle=2;" parent="WIyWlLk6GJQsqaUBKTNV-1" vertex="1">
          <mxGeometry x="150" y="620" width="120" height="60" as="geometry" />
        </mxCell>
        <mxCell id="sgsbGHKke1k9-sHy4_dt-8" style="edgeStyle=none;curved=1;rounded=0;orthogonalLoop=1;jettySize=auto;html=1;fontSize=12;startSize=8;endSize=8;labelBackgroundColor=none;strokeColor=#A8201A;fontColor=default;sketch=1;curveFitting=1;jiggle=2;" parent="WIyWlLk6GJQsqaUBKTNV-1" source="sgsbGHKke1k9-sHy4_dt-5" target="sgsbGHKke1k9-sHy4_dt-9" edge="1">
          <mxGeometry relative="1" as="geometry">
            <mxPoint x="212.5" y="1040" as="targetPoint" />
          </mxGeometry>
        </mxCell>
        <mxCell id="sgsbGHKke1k9-sHy4_dt-5" value="Steps" style="swimlane;whiteSpace=wrap;html=1;labelBackgroundColor=none;fillColor=#FAE5C7;strokeColor=#0F8B8D;fontColor=#143642;sketch=1;curveFitting=1;jiggle=2;" parent="WIyWlLk6GJQsqaUBKTNV-1" vertex="1">
          <mxGeometry x="110" y="750" width="205" height="180" as="geometry" />
        </mxCell>
        <mxCell id="sgsbGHKke1k9-sHy4_dt-6" value="The user provides input&lt;div&gt;&amp;nbsp;(a question or command)&lt;/div&gt;&lt;div&gt;&amp;nbsp;via a user interface.&lt;/div&gt;" style="text;html=1;align=center;verticalAlign=middle;resizable=0;points=[];autosize=1;strokeColor=none;fillColor=none;fontSize=16;labelBackgroundColor=none;fontColor=#143642;sketch=1;curveFitting=1;jiggle=2;" parent="sgsbGHKke1k9-sHy4_dt-5" vertex="1">
          <mxGeometry x="-5" y="30" width="210" height="70" as="geometry" />
        </mxCell>
        <mxCell id="sgsbGHKke1k9-sHy4_dt-15" style="edgeStyle=none;curved=1;rounded=0;orthogonalLoop=1;jettySize=auto;html=1;fontSize=12;startSize=8;endSize=8;labelBackgroundColor=none;strokeColor=#A8201A;fontColor=default;sketch=1;curveFitting=1;jiggle=2;" parent="WIyWlLk6GJQsqaUBKTNV-1" source="sgsbGHKke1k9-sHy4_dt-9" edge="1">
          <mxGeometry relative="1" as="geometry">
            <mxPoint x="215" y="1370" as="targetPoint" />
          </mxGeometry>
        </mxCell>
        <mxCell id="sgsbGHKke1k9-sHy4_dt-9" value="Integration" style="swimlane;whiteSpace=wrap;html=1;labelBackgroundColor=none;fillColor=#FAE5C7;strokeColor=#0F8B8D;fontColor=#143642;sketch=1;curveFitting=1;jiggle=2;" parent="WIyWlLk6GJQsqaUBKTNV-1" vertex="1">
          <mxGeometry x="115" y="1060" width="200" height="200" as="geometry" />
        </mxCell>
        <mxCell id="sgsbGHKke1k9-sHy4_dt-10" value="This can happen through&lt;div&gt;&amp;nbsp;a form, a chat widget&lt;span style=&quot;background-color: initial;&quot;&gt;,&lt;/span&gt;&lt;/div&gt;&lt;div&gt;&lt;span style=&quot;background-color: initial;&quot;&gt;&amp;nbsp;or an API.&lt;/span&gt;&lt;/div&gt;" style="text;html=1;align=center;verticalAlign=middle;resizable=0;points=[];autosize=1;strokeColor=none;fillColor=none;fontSize=16;labelBackgroundColor=none;fontColor=#143642;sketch=1;curveFitting=1;jiggle=2;" parent="sgsbGHKke1k9-sHy4_dt-9" vertex="1">
          <mxGeometry y="31" width="200" height="70" as="geometry" />
        </mxCell>
        <mxCell id="sgsbGHKke1k9-sHy4_dt-16" value="Integration Points" style="swimlane;fontStyle=0;childLayout=stackLayout;horizontal=1;startSize=30;horizontalStack=0;resizeParent=1;resizeParentMax=0;resizeLast=0;collapsible=1;marginBottom=0;whiteSpace=wrap;html=1;labelBackgroundColor=none;fillColor=#FAE5C7;strokeColor=#0F8B8D;fontColor=#143642;sketch=1;curveFitting=1;jiggle=2;" parent="WIyWlLk6GJQsqaUBKTNV-1" vertex="1">
          <mxGeometry x="100" y="1370" width="230" height="140" as="geometry">
            <mxRectangle x="100" y="1370" width="100" height="30" as="alternateBounds" />
          </mxGeometry>
        </mxCell>
        <mxCell id="sgsbGHKke1k9-sHy4_dt-17" value="Web App-&amp;nbsp;input field on a website" style="text;strokeColor=none;fillColor=none;align=left;verticalAlign=middle;spacingLeft=4;spacingRight=4;overflow=hidden;points=[[0,0.5],[1,0.5]];portConstraint=eastwest;rotatable=0;whiteSpace=wrap;html=1;labelBackgroundColor=none;fontColor=#143642;sketch=1;curveFitting=1;jiggle=2;" parent="sgsbGHKke1k9-sHy4_dt-16" vertex="1">
          <mxGeometry y="30" width="230" height="30" as="geometry" />
        </mxCell>
        <mxCell id="sgsbGHKke1k9-sHy4_dt-18" value="Mobile App-&amp;nbsp;input in a mobile app" style="text;strokeColor=none;fillColor=none;align=left;verticalAlign=middle;spacingLeft=4;spacingRight=4;overflow=hidden;points=[[0,0.5],[1,0.5]];portConstraint=eastwest;rotatable=0;whiteSpace=wrap;html=1;labelBackgroundColor=none;fontColor=#143642;sketch=1;curveFitting=1;jiggle=2;" parent="sgsbGHKke1k9-sHy4_dt-16" vertex="1">
          <mxGeometry y="60" width="230" height="30" as="geometry" />
        </mxCell>
        <mxCell id="sgsbGHKke1k9-sHy4_dt-19" value="Messaging Platforms-WhatsApp&amp;nbsp;or&lt;div&gt;Telegram&lt;/div&gt;" style="text;strokeColor=none;fillColor=none;align=left;verticalAlign=middle;spacingLeft=4;spacingRight=4;overflow=hidden;points=[[0,0.5],[1,0.5]];portConstraint=eastwest;rotatable=0;whiteSpace=wrap;html=1;labelBackgroundColor=none;fontColor=#143642;sketch=1;curveFitting=1;jiggle=2;" parent="sgsbGHKke1k9-sHy4_dt-16" vertex="1">
          <mxGeometry y="90" width="230" height="50" as="geometry" />
        </mxCell>
        <mxCell id="sgsbGHKke1k9-sHy4_dt-22" value="Integration" style="swimlane;fontStyle=0;childLayout=stackLayout;horizontal=1;startSize=30;horizontalStack=0;resizeParent=1;resizeParentMax=0;resizeLast=0;collapsible=1;marginBottom=0;whiteSpace=wrap;html=1;labelBackgroundColor=none;fillColor=#FAE5C7;strokeColor=#0F8B8D;fontColor=#143642;sketch=1;curveFitting=1;jiggle=2;" parent="WIyWlLk6GJQsqaUBKTNV-1" vertex="1">
          <mxGeometry x="490" y="1640" width="230" height="150" as="geometry" />
        </mxCell>
        <mxCell id="sgsbGHKke1k9-sHy4_dt-23" value="&lt;div&gt;&lt;span style=&quot;background-color: initial;&quot;&gt;1 Step:&amp;nbsp;The chatbot is embedded into a platform&lt;/span&gt;&lt;br&gt;&lt;/div&gt;" style="text;strokeColor=none;fillColor=none;align=left;verticalAlign=middle;spacingLeft=4;spacingRight=4;overflow=hidden;points=[[0,0.5],[1,0.5]];portConstraint=eastwest;rotatable=0;whiteSpace=wrap;html=1;labelBackgroundColor=none;fontColor=#143642;sketch=1;curveFitting=1;jiggle=2;" parent="sgsbGHKke1k9-sHy4_dt-22" vertex="1">
          <mxGeometry y="30" width="230" height="40" as="geometry" />
        </mxCell>
        <mxCell id="sgsbGHKke1k9-sHy4_dt-24" value="2 Details:&amp;nbsp;Communication between the chatbot backend and the platform.&lt;div&gt;&lt;span style=&quot;background-color: initial;&quot;&gt;Using: APIs or direct UI components.&lt;/span&gt;&lt;br&gt;&lt;/div&gt;&lt;div&gt;&lt;div&gt;&lt;br&gt;&lt;/div&gt;&lt;/div&gt;" style="text;strokeColor=none;fillColor=none;align=left;verticalAlign=middle;spacingLeft=4;spacingRight=4;overflow=hidden;points=[[0,0.5],[1,0.5]];portConstraint=eastwest;rotatable=0;whiteSpace=wrap;html=1;labelBackgroundColor=none;fontColor=#143642;sketch=1;curveFitting=1;jiggle=2;" parent="sgsbGHKke1k9-sHy4_dt-22" vertex="1">
          <mxGeometry y="70" width="230" height="80" as="geometry" />
        </mxCell>
        <mxCell id="sgsbGHKke1k9-sHy4_dt-31" value="3 Platforms" style="swimlane;fontStyle=0;childLayout=stackLayout;horizontal=1;startSize=30;horizontalStack=0;resizeParent=1;resizeParentMax=0;resizeLast=0;collapsible=1;marginBottom=0;whiteSpace=wrap;html=1;labelBackgroundColor=none;fillColor=#FAE5C7;strokeColor=#0F8B8D;fontColor=#143642;sketch=1;curveFitting=1;jiggle=2;" parent="WIyWlLk6GJQsqaUBKTNV-1" vertex="1">
          <mxGeometry x="95" y="1760" width="230" height="170" as="geometry" />
        </mxCell>
        <mxCell id="sgsbGHKke1k9-sHy4_dt-32" value="Web App:&amp;nbsp;Embed using a JavaScript widget or REST API." style="text;strokeColor=none;fillColor=none;align=left;verticalAlign=middle;spacingLeft=4;spacingRight=4;overflow=hidden;points=[[0,0.5],[1,0.5]];portConstraint=eastwest;rotatable=0;whiteSpace=wrap;html=1;labelBackgroundColor=none;fontColor=#143642;sketch=1;curveFitting=1;jiggle=2;" parent="sgsbGHKke1k9-sHy4_dt-31" vertex="1">
          <mxGeometry y="30" width="230" height="40" as="geometry" />
        </mxCell>
        <mxCell id="sgsbGHKke1k9-sHy4_dt-33" value="Mobile App:&amp;nbsp;Implement via API integration" style="text;strokeColor=none;fillColor=none;align=left;verticalAlign=middle;spacingLeft=4;spacingRight=4;overflow=hidden;points=[[0,0.5],[1,0.5]];portConstraint=eastwest;rotatable=0;whiteSpace=wrap;html=1;labelBackgroundColor=none;fontColor=#143642;sketch=1;curveFitting=1;jiggle=2;" parent="sgsbGHKke1k9-sHy4_dt-31" vertex="1">
          <mxGeometry y="70" width="230" height="40" as="geometry" />
        </mxCell>
        <mxCell id="sgsbGHKke1k9-sHy4_dt-34" value="Messaging Platforms:&amp;nbsp;Integrate using platform-specific APIs like WhatsApp Business API, Telegram Bot API." style="text;strokeColor=none;fillColor=none;align=left;verticalAlign=middle;spacingLeft=4;spacingRight=4;overflow=hidden;points=[[0,0.5],[1,0.5]];portConstraint=eastwest;rotatable=0;whiteSpace=wrap;html=1;labelBackgroundColor=none;fontColor=#143642;sketch=1;curveFitting=1;jiggle=2;" parent="sgsbGHKke1k9-sHy4_dt-31" vertex="1">
          <mxGeometry y="110" width="230" height="60" as="geometry" />
        </mxCell>
        <mxCell id="sgsbGHKke1k9-sHy4_dt-40" style="edgeStyle=none;curved=1;rounded=0;orthogonalLoop=1;jettySize=auto;html=1;fontSize=12;startSize=8;endSize=8;labelBackgroundColor=none;strokeColor=#A8201A;fontColor=default;sketch=1;curveFitting=1;jiggle=2;" parent="WIyWlLk6GJQsqaUBKTNV-1" source="sgsbGHKke1k9-sHy4_dt-36" target="sgsbGHKke1k9-sHy4_dt-41" edge="1">
          <mxGeometry relative="1" as="geometry">
            <mxPoint x="590" y="1730" as="targetPoint" />
          </mxGeometry>
        </mxCell>
        <mxCell id="sgsbGHKke1k9-sHy4_dt-36" value="NLP(Natural Language Processing)" style="swimlane;fontStyle=0;childLayout=stackLayout;horizontal=1;startSize=30;horizontalStack=0;resizeParent=1;resizeParentMax=0;resizeLast=0;collapsible=1;marginBottom=0;whiteSpace=wrap;html=1;labelBackgroundColor=none;fillColor=#FAE5C7;strokeColor=#0F8B8D;fontColor=#143642;sketch=1;curveFitting=1;jiggle=2;" parent="WIyWlLk6GJQsqaUBKTNV-1" vertex="1">
          <mxGeometry x="1210" y="1870" width="240" height="210" as="geometry" />
        </mxCell>
        <mxCell id="sgsbGHKke1k9-sHy4_dt-37" value="&lt;strong&gt;Step&lt;/strong&gt;: The chatbot processes the user&#39;s input through an NLP framework. Two popular frameworks:" style="text;strokeColor=none;fillColor=none;align=left;verticalAlign=middle;spacingLeft=4;spacingRight=4;overflow=hidden;points=[[0,0.5],[1,0.5]];portConstraint=eastwest;rotatable=0;whiteSpace=wrap;html=1;labelBackgroundColor=none;fontColor=#143642;sketch=1;curveFitting=1;jiggle=2;" parent="sgsbGHKke1k9-sHy4_dt-36" vertex="1">
          <mxGeometry y="30" width="240" height="70" as="geometry" />
        </mxCell>
        <mxCell id="sgsbGHKke1k9-sHy4_dt-38" value="1&amp;nbsp;&lt;strong&gt;ChatterBot&lt;/strong&gt;: Ideal for &lt;strong&gt;rule-based&lt;/strong&gt; chatbot implementations." style="text;strokeColor=none;fillColor=none;align=left;verticalAlign=middle;spacingLeft=4;spacingRight=4;overflow=hidden;points=[[0,0.5],[1,0.5]];portConstraint=eastwest;rotatable=0;whiteSpace=wrap;html=1;labelBackgroundColor=none;fontColor=#143642;sketch=1;curveFitting=1;jiggle=2;" parent="sgsbGHKke1k9-sHy4_dt-36" vertex="1">
          <mxGeometry y="100" width="240" height="40" as="geometry" />
        </mxCell>
        <mxCell id="sgsbGHKke1k9-sHy4_dt-39" value="2&amp;nbsp;&lt;strong&gt;Rasa&lt;/strong&gt;: Best for &lt;strong&gt;machine learning-based&lt;/strong&gt; chatbots, capable of handling more complex conversations." style="text;strokeColor=none;fillColor=none;align=left;verticalAlign=middle;spacingLeft=4;spacingRight=4;overflow=hidden;points=[[0,0.5],[1,0.5]];portConstraint=eastwest;rotatable=0;whiteSpace=wrap;html=1;labelBackgroundColor=none;fontColor=#143642;sketch=1;curveFitting=1;jiggle=2;" parent="sgsbGHKke1k9-sHy4_dt-36" vertex="1">
          <mxGeometry y="140" width="240" height="70" as="geometry" />
        </mxCell>
        <mxCell id="sgsbGHKke1k9-sHy4_dt-41" value="Substeps" style="swimlane;fontStyle=0;childLayout=stackLayout;horizontal=1;startSize=30;horizontalStack=0;resizeParent=1;resizeParentMax=0;resizeLast=0;collapsible=1;marginBottom=0;whiteSpace=wrap;html=1;labelBackgroundColor=none;fillColor=#FAE5C7;strokeColor=#0F8B8D;fontColor=#143642;sketch=1;curveFitting=1;jiggle=2;" parent="WIyWlLk6GJQsqaUBKTNV-1" vertex="1">
          <mxGeometry x="1200" y="1370" width="250" height="260" as="geometry" />
        </mxCell>
        <mxCell id="sgsbGHKke1k9-sHy4_dt-42" value="1&amp;nbsp;&lt;strong&gt;Tokenization&lt;/strong&gt;: Breaking down the user input into words or tokens." style="text;strokeColor=none;fillColor=none;align=left;verticalAlign=middle;spacingLeft=4;spacingRight=4;overflow=hidden;points=[[0,0.5],[1,0.5]];portConstraint=eastwest;rotatable=0;whiteSpace=wrap;html=1;labelBackgroundColor=none;fontColor=#143642;sketch=1;curveFitting=1;jiggle=2;" parent="sgsbGHKke1k9-sHy4_dt-41" vertex="1">
          <mxGeometry y="30" width="250" height="50" as="geometry" />
        </mxCell>
        <mxCell id="sgsbGHKke1k9-sHy4_dt-43" value="2&amp;nbsp;&lt;strong&gt;Part-of-Speech Tagging&lt;/strong&gt;: Identifying the parts of speech" style="text;strokeColor=none;fillColor=none;align=left;verticalAlign=middle;spacingLeft=4;spacingRight=4;overflow=hidden;points=[[0,0.5],[1,0.5]];portConstraint=eastwest;rotatable=0;whiteSpace=wrap;html=1;labelBackgroundColor=none;fontColor=#143642;sketch=1;curveFitting=1;jiggle=2;" parent="sgsbGHKke1k9-sHy4_dt-41" vertex="1">
          <mxGeometry y="80" width="250" height="40" as="geometry" />
        </mxCell>
        <mxCell id="sgsbGHKke1k9-sHy4_dt-44" value="&lt;div&gt;&lt;br&gt;&lt;div&gt;&lt;div&gt;3&amp;nbsp;&lt;span style=&quot;background-color: initial;&quot;&gt;&amp;nbsp;S&lt;/span&gt;&lt;strong style=&quot;background-color: initial;&quot;&gt;entiment Analysis&lt;/strong&gt;&lt;span style=&quot;background-color: initial;&quot;&gt;: (Optional) Analyzing the sentiment (positive, negative, neutral) behind the user input.&lt;/span&gt;&lt;/div&gt;&lt;/div&gt;&lt;/div&gt;" style="text;strokeColor=none;fillColor=none;align=left;verticalAlign=middle;spacingLeft=4;spacingRight=4;overflow=hidden;points=[[0,0.5],[1,0.5]];portConstraint=eastwest;rotatable=0;whiteSpace=wrap;html=1;labelBackgroundColor=none;fontColor=#143642;sketch=1;curveFitting=1;jiggle=2;" parent="sgsbGHKke1k9-sHy4_dt-41" vertex="1">
          <mxGeometry y="120" width="250" height="140" as="geometry" />
        </mxCell>
        <mxCell id="sgsbGHKke1k9-sHy4_dt-51" value="Branching Logic" style="swimlane;fontStyle=0;childLayout=stackLayout;horizontal=1;startSize=26;fillColor=none;horizontalStack=0;resizeParent=1;resizeParentMax=0;resizeLast=0;collapsible=1;marginBottom=0;html=1;labelBackgroundColor=none;strokeColor=#0F8B8D;fontColor=#143642;sketch=1;curveFitting=1;jiggle=2;" parent="WIyWlLk6GJQsqaUBKTNV-1" vertex="1">
          <mxGeometry x="710" y="930" width="250" height="230" as="geometry" />
        </mxCell>
        <mxCell id="sgsbGHKke1k9-sHy4_dt-52" value="&lt;strong style=&quot;background-color: initial;&quot;&gt;Step&lt;/strong&gt;&lt;span style=&quot;background-color: initial;&quot;&gt;: The chatbot generates an appropriate response based on the branching logic.&lt;/span&gt;" style="text;strokeColor=none;fillColor=none;align=left;verticalAlign=top;spacingLeft=4;spacingRight=4;overflow=hidden;rotatable=0;points=[[0,0.5],[1,0.5]];portConstraint=eastwest;whiteSpace=wrap;html=1;labelBackgroundColor=none;fontColor=#143642;sketch=1;curveFitting=1;jiggle=2;" parent="sgsbGHKke1k9-sHy4_dt-51" vertex="1">
          <mxGeometry y="26" width="250" height="44" as="geometry" />
        </mxCell>
        <mxCell id="sgsbGHKke1k9-sHy4_dt-53" value="Paths:" style="text;strokeColor=none;fillColor=none;align=left;verticalAlign=top;spacingLeft=4;spacingRight=4;overflow=hidden;rotatable=0;points=[[0,0.5],[1,0.5]];portConstraint=eastwest;whiteSpace=wrap;html=1;labelBackgroundColor=none;fontColor=#143642;sketch=1;curveFitting=1;jiggle=2;" parent="sgsbGHKke1k9-sHy4_dt-51" vertex="1">
          <mxGeometry y="70" width="250" height="30" as="geometry" />
        </mxCell>
        <mxCell id="sgsbGHKke1k9-sHy4_dt-54" value="1&amp;nbsp;&lt;strong&gt;Rule-Based&lt;/strong&gt;:&amp;nbsp;The response is pulled from predefined rules or a database of responses.&lt;div&gt;&lt;br&gt;&lt;/div&gt;&lt;div&gt;2&amp;nbsp;&lt;strong style=&quot;background-color: initial;&quot;&gt;ML-Based&lt;/strong&gt;&lt;span style=&quot;background-color: initial;&quot;&gt;:&amp;nbsp;&lt;/span&gt;&lt;span style=&quot;background-color: initial;&quot;&gt;A response is generated dynamically, using machine learning algorithms that predict what the user might expect based on the conversation&lt;/span&gt;&lt;/div&gt;" style="text;strokeColor=none;fillColor=none;align=left;verticalAlign=top;spacingLeft=4;spacingRight=4;overflow=hidden;rotatable=0;points=[[0,0.5],[1,0.5]];portConstraint=eastwest;whiteSpace=wrap;html=1;labelBackgroundColor=none;fontColor=#143642;sketch=1;curveFitting=1;jiggle=2;" parent="sgsbGHKke1k9-sHy4_dt-51" vertex="1">
          <mxGeometry y="100" width="250" height="130" as="geometry" />
        </mxCell>
        <mxCell id="sgsbGHKke1k9-sHy4_dt-56" value="Return Response to User" style="swimlane;fontStyle=0;childLayout=stackLayout;horizontal=1;startSize=26;fillColor=none;horizontalStack=0;resizeParent=1;resizeParentMax=0;resizeLast=0;collapsible=1;marginBottom=0;html=1;labelBackgroundColor=none;strokeColor=#0F8B8D;fontColor=#143642;sketch=1;curveFitting=1;jiggle=2;" parent="WIyWlLk6GJQsqaUBKTNV-1" vertex="1">
          <mxGeometry x="1190" y="580" width="240" height="190" as="geometry" />
        </mxCell>
        <mxCell id="sgsbGHKke1k9-sHy4_dt-57" value="&lt;strong style=&quot;background-color: initial;&quot;&gt;1 Step&lt;/strong&gt;&lt;span style=&quot;background-color: initial;&quot;&gt;:&amp;nbsp;&lt;/span&gt;The chatbot sends the response back to the user via the user interface&lt;span style=&quot;background-color: initial;&quot;&gt;.&lt;/span&gt;" style="text;strokeColor=none;fillColor=none;align=left;verticalAlign=top;spacingLeft=4;spacingRight=4;overflow=hidden;rotatable=0;points=[[0,0.5],[1,0.5]];portConstraint=eastwest;whiteSpace=wrap;html=1;labelBackgroundColor=none;fontColor=#143642;sketch=1;curveFitting=1;jiggle=2;" parent="sgsbGHKke1k9-sHy4_dt-56" vertex="1">
          <mxGeometry y="26" width="240" height="44" as="geometry" />
        </mxCell>
        <mxCell id="sgsbGHKke1k9-sHy4_dt-58" value="&lt;div&gt;&lt;strong&gt;&lt;br&gt;&lt;/strong&gt;&lt;/div&gt;&lt;strong&gt;&lt;div&gt;&lt;strong&gt;&lt;br&gt;&lt;/strong&gt;&lt;/div&gt;&lt;div&gt;&lt;strong&gt;&lt;br&gt;&lt;/strong&gt;&lt;/div&gt;2 Details&lt;/strong&gt;: This can be a simple text response, a card, or even an action (e.g., performing a search, making a booking)" style="text;strokeColor=none;fillColor=none;align=left;verticalAlign=top;spacingLeft=4;spacingRight=4;overflow=hidden;rotatable=0;points=[[0,0.5],[1,0.5]];portConstraint=eastwest;whiteSpace=wrap;html=1;labelBackgroundColor=none;fontColor=#143642;sketch=1;curveFitting=1;jiggle=2;" parent="sgsbGHKke1k9-sHy4_dt-56" vertex="1">
          <mxGeometry y="70" width="240" height="120" as="geometry" />
        </mxCell>
        <mxCell id="sgsbGHKke1k9-sHy4_dt-64" style="edgeStyle=none;curved=1;rounded=0;orthogonalLoop=1;jettySize=auto;html=1;fontSize=12;startSize=8;endSize=8;labelBackgroundColor=none;strokeColor=#A8201A;fontColor=default;sketch=1;curveFitting=1;jiggle=2;" parent="WIyWlLk6GJQsqaUBKTNV-1" source="sgsbGHKke1k9-sHy4_dt-61" edge="1" target="sgsbGHKke1k9-sHy4_dt-67">
          <mxGeometry relative="1" as="geometry">
            <mxPoint x="880" y="223" as="targetPoint" />
          </mxGeometry>
        </mxCell>
        <mxCell id="sgsbGHKke1k9-sHy4_dt-61" value="3 Platforms" style="swimlane;fontStyle=0;childLayout=stackLayout;horizontal=1;startSize=26;fillColor=none;horizontalStack=0;resizeParent=1;resizeParentMax=0;resizeLast=0;collapsible=1;marginBottom=0;html=1;labelBackgroundColor=none;strokeColor=#0F8B8D;fontColor=#143642;sketch=1;curveFitting=1;jiggle=2;" parent="WIyWlLk6GJQsqaUBKTNV-1" vertex="1">
          <mxGeometry x="450" y="110" width="310" height="190" as="geometry" />
        </mxCell>
        <mxCell id="sgsbGHKke1k9-sHy4_dt-62" value="&lt;b&gt;1&amp;nbsp;&lt;/b&gt;&lt;strong&gt;Web App&lt;/strong&gt;: The response appears as a chat bubble, popup, or other UI component." style="text;strokeColor=none;fillColor=none;align=left;verticalAlign=top;spacingLeft=4;spacingRight=4;overflow=hidden;rotatable=0;points=[[0,0.5],[1,0.5]];portConstraint=eastwest;whiteSpace=wrap;html=1;labelBackgroundColor=none;fontColor=#143642;sketch=1;curveFitting=1;jiggle=2;" parent="sgsbGHKke1k9-sHy4_dt-61" vertex="1">
          <mxGeometry y="26" width="310" height="44" as="geometry" />
        </mxCell>
        <mxCell id="sgsbGHKke1k9-sHy4_dt-63" value="&lt;div&gt;&lt;br&gt;&lt;/div&gt;2&amp;nbsp;&lt;strong&gt;Mobile App&lt;/strong&gt;: The response is displayed within the app interface.&lt;div&gt;&lt;/div&gt;&lt;div&gt;&lt;br&gt;&lt;/div&gt;&lt;div&gt;3&amp;nbsp;&lt;strong style=&quot;background-color: initial;&quot;&gt;Messaging Platforms&lt;/strong&gt;&lt;span style=&quot;background-color: initial;&quot;&gt;: The response is sent back as a message via platforms like WhatsApp or Messenger&lt;/span&gt;&lt;/div&gt;" style="text;strokeColor=none;fillColor=none;align=left;verticalAlign=top;spacingLeft=4;spacingRight=4;overflow=hidden;rotatable=0;points=[[0,0.5],[1,0.5]];portConstraint=eastwest;whiteSpace=wrap;html=1;labelBackgroundColor=none;fontColor=#143642;sketch=1;curveFitting=1;jiggle=2;" parent="sgsbGHKke1k9-sHy4_dt-61" vertex="1">
          <mxGeometry y="70" width="310" height="120" as="geometry" />
        </mxCell>
        <mxCell id="sgsbGHKke1k9-sHy4_dt-72" style="edgeStyle=none;curved=1;rounded=0;orthogonalLoop=1;jettySize=auto;html=1;fontSize=12;startSize=8;endSize=8;labelBackgroundColor=none;strokeColor=#A8201A;fontColor=default;sketch=1;curveFitting=1;jiggle=2;entryX=0;entryY=0.5;entryDx=0;entryDy=0;exitX=1;exitY=0.5;exitDx=0;exitDy=0;" parent="WIyWlLk6GJQsqaUBKTNV-1" source="sgsbGHKke1k9-sHy4_dt-66" edge="1" target="sgsbGHKke1k9-sHy4_dt-70">
          <mxGeometry relative="1" as="geometry">
            <mxPoint x="1170" y="260" as="targetPoint" />
          </mxGeometry>
        </mxCell>
        <mxCell id="sgsbGHKke1k9-sHy4_dt-66" value="Integration Points" style="swimlane;whiteSpace=wrap;html=1;labelBackgroundColor=none;fillColor=#FAE5C7;strokeColor=#0F8B8D;fontColor=#143642;sketch=1;curveFitting=1;jiggle=2;" parent="WIyWlLk6GJQsqaUBKTNV-1" vertex="1">
          <mxGeometry x="990" y="100" width="200" height="200" as="geometry" />
        </mxCell>
        <mxCell id="sgsbGHKke1k9-sHy4_dt-68" value="Integration Types" style="swimlane;fontStyle=0;childLayout=stackLayout;horizontal=1;startSize=30;horizontalStack=0;resizeParent=1;resizeParentMax=0;resizeLast=0;collapsible=1;marginBottom=0;whiteSpace=wrap;html=1;labelBackgroundColor=none;fillColor=#FAE5C7;strokeColor=#0F8B8D;fontColor=#143642;sketch=1;curveFitting=1;jiggle=2;" parent="WIyWlLk6GJQsqaUBKTNV-1" vertex="1">
          <mxGeometry x="1570" y="50" width="250" height="270" as="geometry" />
        </mxCell>
        <mxCell id="sgsbGHKke1k9-sHy4_dt-69" value="1&amp;nbsp;&lt;strong&gt;Web App Integration&lt;/strong&gt;: The chatbot can be embedded using a JavaScript widget or integrated via REST API to respond to user queries within the website" style="text;strokeColor=none;fillColor=none;align=left;verticalAlign=middle;spacingLeft=4;spacingRight=4;overflow=hidden;points=[[0,0.5],[1,0.5]];portConstraint=eastwest;rotatable=0;whiteSpace=wrap;html=1;labelBackgroundColor=none;fontColor=#143642;sketch=1;curveFitting=1;jiggle=2;" parent="sgsbGHKke1k9-sHy4_dt-68" vertex="1">
          <mxGeometry y="30" width="250" height="80" as="geometry" />
        </mxCell>
        <mxCell id="sgsbGHKke1k9-sHy4_dt-70" value="2&amp;nbsp;&lt;strong&gt;Mobile App Integration&lt;/strong&gt;: The chatbot communicates with the app using APIs, processing requests and displaying responses in the app interface." style="text;strokeColor=none;fillColor=none;align=left;verticalAlign=middle;spacingLeft=4;spacingRight=4;overflow=hidden;points=[[0,0.5],[1,0.5]];portConstraint=eastwest;rotatable=0;whiteSpace=wrap;html=1;labelBackgroundColor=none;fontColor=#143642;sketch=1;curveFitting=1;jiggle=2;" parent="sgsbGHKke1k9-sHy4_dt-68" vertex="1">
          <mxGeometry y="110" width="250" height="70" as="geometry" />
        </mxCell>
        <mxCell id="sgsbGHKke1k9-sHy4_dt-71" value="3&amp;nbsp;&lt;strong&gt;Messaging Platforms&lt;/strong&gt;: The chatbot can respond to messages via messaging platforms like WhatsApp, Telegram, or Facebook Messenger through their respective APIs." style="text;strokeColor=none;fillColor=none;align=left;verticalAlign=middle;spacingLeft=4;spacingRight=4;overflow=hidden;points=[[0,0.5],[1,0.5]];portConstraint=eastwest;rotatable=0;whiteSpace=wrap;html=1;labelBackgroundColor=none;fontColor=#143642;sketch=1;curveFitting=1;jiggle=2;" parent="sgsbGHKke1k9-sHy4_dt-68" vertex="1">
          <mxGeometry y="180" width="250" height="90" as="geometry" />
        </mxCell>
        <mxCell id="sgsbGHKke1k9-sHy4_dt-74" value="End" style="ellipse;whiteSpace=wrap;html=1;labelBackgroundColor=none;fillColor=#FAE5C7;strokeColor=#0F8B8D;fontColor=#143642;sketch=1;curveFitting=1;jiggle=2;direction=south;" parent="WIyWlLk6GJQsqaUBKTNV-1" vertex="1">
          <mxGeometry x="2250" y="430" width="190" height="140" as="geometry" />
        </mxCell>
        <mxCell id="sgsbGHKke1k9-sHy4_dt-75" value="Start" style="ellipse;whiteSpace=wrap;html=1;labelBackgroundColor=none;fillColor=#FAE5C7;strokeColor=#0F8B8D;fontColor=#143642;sketch=1;curveFitting=1;jiggle=2;" parent="WIyWlLk6GJQsqaUBKTNV-1" vertex="1">
          <mxGeometry x="150" y="445" width="120" height="80" as="geometry" />
        </mxCell>
        <mxCell id="qLqYaFJJ1_MZFDptOW3I-1" value="" style="curved=1;endArrow=classic;html=1;rounded=0;sketch=1;hachureGap=4;jiggle=2;curveFitting=1;fontFamily=Architects Daughter;fontSource=https%3A%2F%2Ffonts.googleapis.com%2Fcss%3Ffamily%3DArchitects%2BDaughter;fontSize=12;startSize=8;endSize=8;" edge="1" parent="WIyWlLk6GJQsqaUBKTNV-1" source="sgsbGHKke1k9-sHy4_dt-19">
          <mxGeometry width="50" height="50" relative="1" as="geometry">
            <mxPoint x="270" y="1740" as="sourcePoint" />
            <mxPoint x="480" y="1710" as="targetPoint" />
            <Array as="points">
              <mxPoint x="270" y="1580" />
              <mxPoint x="390" y="1640" />
            </Array>
          </mxGeometry>
        </mxCell>
        <mxCell id="qLqYaFJJ1_MZFDptOW3I-3" value="" style="curved=1;endArrow=classic;html=1;rounded=0;sketch=1;hachureGap=4;jiggle=2;curveFitting=1;fontFamily=Architects Daughter;fontSource=https%3A%2F%2Ffonts.googleapis.com%2Fcss%3Ffamily%3DArchitects%2BDaughter;fontSize=12;startSize=8;endSize=8;" edge="1" parent="WIyWlLk6GJQsqaUBKTNV-1" source="sgsbGHKke1k9-sHy4_dt-19">
          <mxGeometry width="50" height="50" relative="1" as="geometry">
            <mxPoint x="710" y="1690" as="sourcePoint" />
            <mxPoint x="200" y="1760" as="targetPoint" />
            <Array as="points">
              <mxPoint x="230" y="1530" />
              <mxPoint x="240" y="1600" />
              <mxPoint x="210" y="1640" />
              <mxPoint x="240" y="1660" />
            </Array>
          </mxGeometry>
        </mxCell>
        <mxCell id="4iF10a3CBcZlDPQmuNXD-0" value="" style="curved=1;endArrow=classic;html=1;rounded=0;sketch=1;hachureGap=4;jiggle=2;curveFitting=1;fontFamily=Architects Daughter;fontSource=https%3A%2F%2Ffonts.googleapis.com%2Fcss%3Ffamily%3DArchitects%2BDaughter;fontSize=12;startSize=8;endSize=8;exitX=0.481;exitY=1.083;exitDx=0;exitDy=0;exitPerimeter=0;" edge="1" parent="WIyWlLk6GJQsqaUBKTNV-1" source="sgsbGHKke1k9-sHy4_dt-34">
          <mxGeometry width="50" height="50" relative="1" as="geometry">
            <mxPoint x="200" y="2050" as="sourcePoint" />
            <mxPoint x="1200" y="2020" as="targetPoint" />
            <Array as="points">
              <mxPoint x="260" y="2120" />
            </Array>
          </mxGeometry>
        </mxCell>
        <mxCell id="4iF10a3CBcZlDPQmuNXD-1" value="" style="curved=1;endArrow=classic;html=1;rounded=0;sketch=1;hachureGap=4;jiggle=2;curveFitting=1;fontFamily=Architects Daughter;fontSource=https%3A%2F%2Ffonts.googleapis.com%2Fcss%3Ffamily%3DArchitects%2BDaughter;fontSize=12;startSize=8;endSize=8;" edge="1" parent="WIyWlLk6GJQsqaUBKTNV-1">
          <mxGeometry width="50" height="50" relative="1" as="geometry">
            <mxPoint x="600" y="1800" as="sourcePoint" />
            <mxPoint x="1200" y="2010" as="targetPoint" />
            <Array as="points">
              <mxPoint x="840" y="1900" />
              <mxPoint x="1000" y="1700" />
            </Array>
          </mxGeometry>
        </mxCell>
        <mxCell id="4iF10a3CBcZlDPQmuNXD-7" value="" style="curved=1;endArrow=classic;html=1;rounded=0;sketch=1;hachureGap=4;jiggle=2;curveFitting=1;fontFamily=Architects Daughter;fontSource=https%3A%2F%2Ffonts.googleapis.com%2Fcss%3Ffamily%3DArchitects%2BDaughter;fontSize=12;startSize=8;endSize=8;entryX=0.441;entryY=1.043;entryDx=0;entryDy=0;entryPerimeter=0;" edge="1" parent="WIyWlLk6GJQsqaUBKTNV-1" target="sgsbGHKke1k9-sHy4_dt-54">
          <mxGeometry width="50" height="50" relative="1" as="geometry">
            <mxPoint x="1190" y="1500" as="sourcePoint" />
            <mxPoint x="1700" y="1310" as="targetPoint" />
            <Array as="points">
              <mxPoint x="980" y="1440" />
              <mxPoint x="960" y="1350" />
              <mxPoint x="870" y="1340" />
            </Array>
          </mxGeometry>
        </mxCell>
        <mxCell id="4iF10a3CBcZlDPQmuNXD-8" value="" style="curved=1;endArrow=classic;html=1;rounded=0;sketch=1;hachureGap=4;jiggle=2;curveFitting=1;fontFamily=Architects Daughter;fontSource=https%3A%2F%2Ffonts.googleapis.com%2Fcss%3Ffamily%3DArchitects%2BDaughter;fontSize=12;startSize=8;endSize=8;exitX=1.029;exitY=0.231;exitDx=0;exitDy=0;exitPerimeter=0;" edge="1" parent="WIyWlLk6GJQsqaUBKTNV-1" source="sgsbGHKke1k9-sHy4_dt-54">
          <mxGeometry width="50" height="50" relative="1" as="geometry">
            <mxPoint x="930" y="1040" as="sourcePoint" />
            <mxPoint x="1340" y="790" as="targetPoint" />
            <Array as="points">
              <mxPoint x="980" y="1040" />
              <mxPoint x="1160" y="1010" />
              <mxPoint x="1370" y="1020" />
            </Array>
          </mxGeometry>
        </mxCell>
        <mxCell id="l-qUS3HVGCJxyj7PTOsz-0" value="" style="curved=1;endArrow=classic;html=1;rounded=0;sketch=1;hachureGap=4;jiggle=2;curveFitting=1;fontFamily=Architects Daughter;fontSource=https%3A%2F%2Ffonts.googleapis.com%2Fcss%3Ffamily%3DArchitects%2BDaughter;fontSize=12;startSize=8;endSize=8;exitX=-0.015;exitY=0.262;exitDx=0;exitDy=0;exitPerimeter=0;" edge="1" parent="WIyWlLk6GJQsqaUBKTNV-1" source="sgsbGHKke1k9-sHy4_dt-58">
          <mxGeometry width="50" height="50" relative="1" as="geometry">
            <mxPoint x="1200" y="570" as="sourcePoint" />
            <mxPoint x="600" y="330" as="targetPoint" />
            <Array as="points">
              <mxPoint x="1030" y="650" />
              <mxPoint x="810" y="650" />
            </Array>
          </mxGeometry>
        </mxCell>
        <mxCell id="l-qUS3HVGCJxyj7PTOsz-1" value="" style="curved=1;endArrow=classic;html=1;rounded=0;sketch=1;hachureGap=4;jiggle=2;curveFitting=1;fontFamily=Architects Daughter;fontSource=https%3A%2F%2Ffonts.googleapis.com%2Fcss%3Ffamily%3DArchitects%2BDaughter;fontSize=12;startSize=8;endSize=8;exitX=0.5;exitY=0;exitDx=0;exitDy=0;" edge="1" parent="WIyWlLk6GJQsqaUBKTNV-1" source="sgsbGHKke1k9-sHy4_dt-51">
          <mxGeometry width="50" height="50" relative="1" as="geometry">
            <mxPoint x="830" y="790" as="sourcePoint" />
            <mxPoint x="600" y="330" as="targetPoint" />
            <Array as="points">
              <mxPoint x="600" y="780" />
              <mxPoint x="830" y="740" />
              <mxPoint x="560" y="590" />
            </Array>
          </mxGeometry>
        </mxCell>
        <mxCell id="sgsbGHKke1k9-sHy4_dt-67" value="&lt;strong&gt;Step&lt;/strong&gt;: The chatbot can&lt;div&gt;&amp;nbsp;be&amp;nbsp;&lt;span style=&quot;background-color: initial;&quot;&gt;across&amp;nbsp;&lt;/span&gt;&lt;/div&gt;&lt;div&gt;&amp;nbsp; &amp;nbsp; &amp;nbsp; &amp;nbsp; &amp;nbsp; &amp;nbsp; multiple platforms&lt;/div&gt;&lt;div&gt;&amp;nbsp; &amp;nbsp; &amp;nbsp; &amp;nbsp; to communicate&lt;/div&gt;&lt;div&gt;with users.&lt;/div&gt;" style="text;html=1;align=center;verticalAlign=middle;resizable=0;points=[];autosize=1;strokeColor=none;fillColor=none;fontSize=16;labelBackgroundColor=none;fontColor=#143642;sketch=1;curveFitting=1;jiggle=2;" parent="WIyWlLk6GJQsqaUBKTNV-1" vertex="1">
          <mxGeometry x="990" y="150" width="210" height="110" as="geometry" />
        </mxCell>
        <mxCell id="l-qUS3HVGCJxyj7PTOsz-3" value="" style="curved=1;endArrow=classic;html=1;rounded=0;sketch=1;hachureGap=4;jiggle=2;curveFitting=1;fontFamily=Architects Daughter;fontSource=https%3A%2F%2Ffonts.googleapis.com%2Fcss%3Ffamily%3DArchitects%2BDaughter;fontSize=12;startSize=8;endSize=8;" edge="1" parent="WIyWlLk6GJQsqaUBKTNV-1">
          <mxGeometry width="50" height="50" relative="1" as="geometry">
            <mxPoint x="1830" y="190" as="sourcePoint" />
            <mxPoint x="2340" y="420" as="targetPoint" />
            <Array as="points">
              <mxPoint x="2030" y="60" />
              <mxPoint x="2050" y="140" />
              <mxPoint x="2370" y="120" />
            </Array>
          </mxGeometry>
        </mxCell>
      </root>
    </mxGraphModel>
  </diagram>
  <diagram id="sl4SLQdNkvPFzWTnYZsi" name="Page-2">
    <mxGraphModel dx="1241" dy="169" grid="0" gridSize="10" guides="1" tooltips="1" connect="1" arrows="1" fold="1" page="0" pageScale="1" pageWidth="827" pageHeight="1169" background="#ecdfdf" math="0" shadow="0">
      <root>
        <mxCell id="0" />
        <mxCell id="1" parent="0" />
        <mxCell id="r44ZlL1c5t1DEnv8SUOW-1" style="edgeStyle=none;curved=1;rounded=0;orthogonalLoop=1;jettySize=auto;html=1;fontSize=12;startSize=8;endSize=8;labelBackgroundColor=none;strokeColor=#006658;fontColor=default;sketch=1;curveFitting=1;jiggle=2;" parent="1" target="r44ZlL1c5t1DEnv8SUOW-3" edge="1">
          <mxGeometry relative="1" as="geometry">
            <mxPoint x="210" y="650" as="targetPoint" />
            <mxPoint x="210" y="520" as="sourcePoint" />
          </mxGeometry>
        </mxCell>
        <mxCell id="r44ZlL1c5t1DEnv8SUOW-2" style="edgeStyle=none;curved=1;rounded=0;orthogonalLoop=1;jettySize=auto;html=1;fontSize=12;startSize=8;endSize=8;labelBackgroundColor=none;strokeColor=#006658;fontColor=default;sketch=1;curveFitting=1;jiggle=2;" parent="1" source="r44ZlL1c5t1DEnv8SUOW-3" edge="1">
          <mxGeometry relative="1" as="geometry">
            <mxPoint x="210" y="750" as="targetPoint" />
          </mxGeometry>
        </mxCell>
        <mxCell id="r44ZlL1c5t1DEnv8SUOW-3" value="User Input" style="rounded=1;whiteSpace=wrap;html=1;labelBackgroundColor=none;fillColor=#21C0A5;strokeColor=#006658;fontColor=#5C5C5C;sketch=1;curveFitting=1;jiggle=2;" parent="1" vertex="1">
          <mxGeometry x="150" y="620" width="120" height="60" as="geometry" />
        </mxCell>
        <mxCell id="r44ZlL1c5t1DEnv8SUOW-4" style="edgeStyle=none;curved=1;rounded=0;orthogonalLoop=1;jettySize=auto;html=1;fontSize=12;startSize=8;endSize=8;labelBackgroundColor=none;strokeColor=#006658;fontColor=default;sketch=1;curveFitting=1;jiggle=2;" parent="1" source="r44ZlL1c5t1DEnv8SUOW-5" target="r44ZlL1c5t1DEnv8SUOW-8" edge="1">
          <mxGeometry relative="1" as="geometry">
            <mxPoint x="212.5" y="1040" as="targetPoint" />
          </mxGeometry>
        </mxCell>
        <mxCell id="r44ZlL1c5t1DEnv8SUOW-5" value="Steps" style="swimlane;whiteSpace=wrap;html=1;labelBackgroundColor=none;fillColor=#21C0A5;strokeColor=#006658;fontColor=#5C5C5C;sketch=1;curveFitting=1;jiggle=2;" parent="1" vertex="1">
          <mxGeometry x="110" y="750" width="205" height="180" as="geometry">
            <mxRectangle x="110" y="750" width="66" height="26" as="alternateBounds" />
          </mxGeometry>
        </mxCell>
        <mxCell id="r44ZlL1c5t1DEnv8SUOW-6" value="The user provides input&lt;div&gt;&amp;nbsp;(a question or command)&lt;/div&gt;&lt;div&gt;&amp;nbsp;via a user interface.&lt;/div&gt;" style="text;html=1;align=center;verticalAlign=middle;resizable=0;points=[];autosize=1;strokeColor=none;fillColor=none;fontSize=16;labelBackgroundColor=none;fontColor=#5C5C5C;sketch=1;curveFitting=1;jiggle=2;" parent="r44ZlL1c5t1DEnv8SUOW-5" vertex="1">
          <mxGeometry x="-5" y="30" width="210" height="70" as="geometry" />
        </mxCell>
        <mxCell id="r44ZlL1c5t1DEnv8SUOW-7" style="edgeStyle=none;curved=1;rounded=0;orthogonalLoop=1;jettySize=auto;html=1;fontSize=12;startSize=8;endSize=8;labelBackgroundColor=none;strokeColor=#006658;fontColor=default;sketch=1;curveFitting=1;jiggle=2;" parent="1" source="r44ZlL1c5t1DEnv8SUOW-8" edge="1">
          <mxGeometry relative="1" as="geometry">
            <mxPoint x="215" y="1370" as="targetPoint" />
          </mxGeometry>
        </mxCell>
        <mxCell id="r44ZlL1c5t1DEnv8SUOW-8" value="Vertical Container" style="swimlane;whiteSpace=wrap;html=1;labelBackgroundColor=none;fillColor=#21C0A5;strokeColor=#006658;fontColor=#5C5C5C;sketch=1;curveFitting=1;jiggle=2;" parent="1" vertex="1">
          <mxGeometry x="115" y="1060" width="200" height="200" as="geometry">
            <mxRectangle x="115" y="1060" width="129" height="26" as="alternateBounds" />
          </mxGeometry>
        </mxCell>
        <mxCell id="r44ZlL1c5t1DEnv8SUOW-9" value="This can happen through&lt;div&gt;&amp;nbsp;a form, a chat widget&lt;span style=&quot;background-color: initial;&quot;&gt;,&lt;/span&gt;&lt;/div&gt;&lt;div&gt;&lt;span style=&quot;background-color: initial;&quot;&gt;&amp;nbsp;or an API.&lt;/span&gt;&lt;/div&gt;" style="text;html=1;align=center;verticalAlign=middle;resizable=0;points=[];autosize=1;strokeColor=none;fillColor=none;fontSize=16;labelBackgroundColor=none;fontColor=#5C5C5C;sketch=1;curveFitting=1;jiggle=2;" parent="r44ZlL1c5t1DEnv8SUOW-8" vertex="1">
          <mxGeometry y="31" width="200" height="70" as="geometry" />
        </mxCell>
        <mxCell id="r44ZlL1c5t1DEnv8SUOW-10" style="edgeStyle=none;curved=1;rounded=0;orthogonalLoop=1;jettySize=auto;html=1;fontSize=12;startSize=8;endSize=8;labelBackgroundColor=none;strokeColor=#006658;fontColor=default;sketch=1;curveFitting=1;jiggle=2;" parent="1" source="r44ZlL1c5t1DEnv8SUOW-11" edge="1">
          <mxGeometry relative="1" as="geometry">
            <mxPoint x="215" y="1600" as="targetPoint" />
          </mxGeometry>
        </mxCell>
        <mxCell id="r44ZlL1c5t1DEnv8SUOW-11" value="Integration Points" style="swimlane;fontStyle=0;childLayout=stackLayout;horizontal=1;startSize=30;horizontalStack=0;resizeParent=1;resizeParentMax=0;resizeLast=0;collapsible=1;marginBottom=0;whiteSpace=wrap;html=1;labelBackgroundColor=none;fillColor=#21C0A5;strokeColor=#006658;fontColor=#5C5C5C;sketch=1;curveFitting=1;jiggle=2;" parent="1" vertex="1">
          <mxGeometry x="100" y="1370" width="230" height="140" as="geometry">
            <mxRectangle x="100" y="1370" width="100" height="30" as="alternateBounds" />
          </mxGeometry>
        </mxCell>
        <mxCell id="r44ZlL1c5t1DEnv8SUOW-12" value="Web App-&amp;nbsp;input field on a website" style="text;strokeColor=none;fillColor=none;align=left;verticalAlign=middle;spacingLeft=4;spacingRight=4;overflow=hidden;points=[[0,0.5],[1,0.5]];portConstraint=eastwest;rotatable=0;whiteSpace=wrap;html=1;labelBackgroundColor=none;fontColor=#5C5C5C;sketch=1;curveFitting=1;jiggle=2;" parent="r44ZlL1c5t1DEnv8SUOW-11" vertex="1">
          <mxGeometry y="30" width="230" height="30" as="geometry" />
        </mxCell>
        <mxCell id="r44ZlL1c5t1DEnv8SUOW-13" value="Mobile App-&amp;nbsp;input in a mobile app" style="text;strokeColor=none;fillColor=none;align=left;verticalAlign=middle;spacingLeft=4;spacingRight=4;overflow=hidden;points=[[0,0.5],[1,0.5]];portConstraint=eastwest;rotatable=0;whiteSpace=wrap;html=1;labelBackgroundColor=none;fontColor=#5C5C5C;sketch=1;curveFitting=1;jiggle=2;" parent="r44ZlL1c5t1DEnv8SUOW-11" vertex="1">
          <mxGeometry y="60" width="230" height="30" as="geometry" />
        </mxCell>
        <mxCell id="r44ZlL1c5t1DEnv8SUOW-14" value="Messaging Platforms-WhatsApp&amp;nbsp;or&lt;div&gt;Telegram&lt;/div&gt;" style="text;strokeColor=none;fillColor=none;align=left;verticalAlign=middle;spacingLeft=4;spacingRight=4;overflow=hidden;points=[[0,0.5],[1,0.5]];portConstraint=eastwest;rotatable=0;whiteSpace=wrap;html=1;labelBackgroundColor=none;fontColor=#5C5C5C;sketch=1;curveFitting=1;jiggle=2;" parent="r44ZlL1c5t1DEnv8SUOW-11" vertex="1">
          <mxGeometry y="90" width="230" height="50" as="geometry" />
        </mxCell>
        <mxCell id="r44ZlL1c5t1DEnv8SUOW-15" value="Integration" style="swimlane;fontStyle=0;childLayout=stackLayout;horizontal=1;startSize=30;horizontalStack=0;resizeParent=1;resizeParentMax=0;resizeLast=0;collapsible=1;marginBottom=0;whiteSpace=wrap;html=1;labelBackgroundColor=none;fillColor=#21C0A5;strokeColor=#006658;fontColor=#5C5C5C;sketch=1;curveFitting=1;jiggle=2;" parent="1" vertex="1">
          <mxGeometry x="100" y="1600" width="230" height="150" as="geometry">
            <mxRectangle x="100" y="1600" width="91" height="30" as="alternateBounds" />
          </mxGeometry>
        </mxCell>
        <mxCell id="r44ZlL1c5t1DEnv8SUOW-16" value="&lt;div&gt;&lt;span style=&quot;background-color: initial;&quot;&gt;1 Step:&amp;nbsp;The chatbot is embedded into a platform&lt;/span&gt;&lt;br&gt;&lt;/div&gt;" style="text;strokeColor=none;fillColor=none;align=left;verticalAlign=middle;spacingLeft=4;spacingRight=4;overflow=hidden;points=[[0,0.5],[1,0.5]];portConstraint=eastwest;rotatable=0;whiteSpace=wrap;html=1;labelBackgroundColor=none;fontColor=#5C5C5C;sketch=1;curveFitting=1;jiggle=2;" parent="r44ZlL1c5t1DEnv8SUOW-15" vertex="1">
          <mxGeometry y="30" width="230" height="40" as="geometry" />
        </mxCell>
        <mxCell id="r44ZlL1c5t1DEnv8SUOW-17" value="2 Details:&amp;nbsp;Communication between the chatbot backend and the platform.&lt;div&gt;&lt;span style=&quot;background-color: initial;&quot;&gt;Using: APIs or direct UI components.&lt;/span&gt;&lt;br&gt;&lt;/div&gt;&lt;div&gt;&lt;div&gt;&lt;br&gt;&lt;/div&gt;&lt;/div&gt;" style="text;strokeColor=none;fillColor=none;align=left;verticalAlign=middle;spacingLeft=4;spacingRight=4;overflow=hidden;points=[[0,0.5],[1,0.5]];portConstraint=eastwest;rotatable=0;whiteSpace=wrap;html=1;labelBackgroundColor=none;fontColor=#5C5C5C;sketch=1;curveFitting=1;jiggle=2;" parent="r44ZlL1c5t1DEnv8SUOW-15" vertex="1">
          <mxGeometry y="70" width="230" height="80" as="geometry" />
        </mxCell>
        <mxCell id="r44ZlL1c5t1DEnv8SUOW-18" value="3 Platforms" style="swimlane;fontStyle=0;childLayout=stackLayout;horizontal=1;startSize=30;horizontalStack=0;resizeParent=1;resizeParentMax=0;resizeLast=0;collapsible=1;marginBottom=0;whiteSpace=wrap;html=1;labelBackgroundColor=none;fillColor=#21C0A5;strokeColor=#006658;fontColor=#5C5C5C;sketch=1;curveFitting=1;jiggle=2;" parent="1" vertex="1">
          <mxGeometry x="100" y="1850" width="230" height="170" as="geometry">
            <mxRectangle x="100" y="1850" width="95" height="30" as="alternateBounds" />
          </mxGeometry>
        </mxCell>
        <mxCell id="r44ZlL1c5t1DEnv8SUOW-19" value="Web App:&amp;nbsp;Embed using a JavaScript widget or REST API." style="text;strokeColor=none;fillColor=none;align=left;verticalAlign=middle;spacingLeft=4;spacingRight=4;overflow=hidden;points=[[0,0.5],[1,0.5]];portConstraint=eastwest;rotatable=0;whiteSpace=wrap;html=1;labelBackgroundColor=none;fontColor=#5C5C5C;sketch=1;curveFitting=1;jiggle=2;" parent="r44ZlL1c5t1DEnv8SUOW-18" vertex="1">
          <mxGeometry y="30" width="230" height="40" as="geometry" />
        </mxCell>
        <mxCell id="r44ZlL1c5t1DEnv8SUOW-20" style="edgeStyle=none;curved=1;rounded=0;orthogonalLoop=1;jettySize=auto;html=1;fontSize=12;startSize=8;endSize=8;labelBackgroundColor=none;strokeColor=#006658;fontColor=default;sketch=1;curveFitting=1;jiggle=2;" parent="r44ZlL1c5t1DEnv8SUOW-18" source="r44ZlL1c5t1DEnv8SUOW-21" edge="1">
          <mxGeometry relative="1" as="geometry">
            <mxPoint x="370" y="90" as="targetPoint" />
          </mxGeometry>
        </mxCell>
        <mxCell id="r44ZlL1c5t1DEnv8SUOW-21" value="Mobile App:&amp;nbsp;Implement via API integration" style="text;strokeColor=none;fillColor=none;align=left;verticalAlign=middle;spacingLeft=4;spacingRight=4;overflow=hidden;points=[[0,0.5],[1,0.5]];portConstraint=eastwest;rotatable=0;whiteSpace=wrap;html=1;labelBackgroundColor=none;fontColor=#5C5C5C;sketch=1;curveFitting=1;jiggle=2;" parent="r44ZlL1c5t1DEnv8SUOW-18" vertex="1">
          <mxGeometry y="70" width="230" height="40" as="geometry" />
        </mxCell>
        <mxCell id="r44ZlL1c5t1DEnv8SUOW-22" value="Messaging Platforms:&amp;nbsp;Integrate using platform-specific APIs like WhatsApp Business API, Telegram Bot API." style="text;strokeColor=none;fillColor=none;align=left;verticalAlign=middle;spacingLeft=4;spacingRight=4;overflow=hidden;points=[[0,0.5],[1,0.5]];portConstraint=eastwest;rotatable=0;whiteSpace=wrap;html=1;labelBackgroundColor=none;fontColor=#5C5C5C;sketch=1;curveFitting=1;jiggle=2;" parent="r44ZlL1c5t1DEnv8SUOW-18" vertex="1">
          <mxGeometry y="110" width="230" height="60" as="geometry" />
        </mxCell>
        <mxCell id="r44ZlL1c5t1DEnv8SUOW-23" style="edgeStyle=none;curved=1;rounded=0;orthogonalLoop=1;jettySize=auto;html=1;fontSize=12;startSize=8;endSize=8;labelBackgroundColor=none;strokeColor=#006658;fontColor=default;sketch=1;curveFitting=1;jiggle=2;" parent="1" source="r44ZlL1c5t1DEnv8SUOW-17" target="r44ZlL1c5t1DEnv8SUOW-18" edge="1">
          <mxGeometry relative="1" as="geometry">
            <mxPoint x="440" y="1710" as="targetPoint" />
          </mxGeometry>
        </mxCell>
        <mxCell id="r44ZlL1c5t1DEnv8SUOW-24" style="edgeStyle=none;curved=1;rounded=0;orthogonalLoop=1;jettySize=auto;html=1;fontSize=12;startSize=8;endSize=8;labelBackgroundColor=none;strokeColor=#006658;fontColor=default;sketch=1;curveFitting=1;jiggle=2;" parent="1" source="r44ZlL1c5t1DEnv8SUOW-25" target="r44ZlL1c5t1DEnv8SUOW-30" edge="1">
          <mxGeometry relative="1" as="geometry">
            <mxPoint x="590" y="1730" as="targetPoint" />
          </mxGeometry>
        </mxCell>
        <mxCell id="r44ZlL1c5t1DEnv8SUOW-25" value="NLP(Natural Language Processing)" style="swimlane;fontStyle=0;childLayout=stackLayout;horizontal=1;startSize=30;horizontalStack=0;resizeParent=1;resizeParentMax=0;resizeLast=0;collapsible=1;marginBottom=0;whiteSpace=wrap;html=1;labelBackgroundColor=none;fillColor=#21C0A5;strokeColor=#006658;fontColor=#5C5C5C;sketch=1;curveFitting=1;jiggle=2;" parent="1" vertex="1">
          <mxGeometry x="470" y="1850" width="240" height="210" as="geometry">
            <mxRectangle x="470" y="1850" width="224" height="30" as="alternateBounds" />
          </mxGeometry>
        </mxCell>
        <mxCell id="r44ZlL1c5t1DEnv8SUOW-26" value="&lt;strong&gt;Step&lt;/strong&gt;: The chatbot processes the user&#39;s input through an NLP framework. Two popular frameworks:" style="text;strokeColor=none;fillColor=none;align=left;verticalAlign=middle;spacingLeft=4;spacingRight=4;overflow=hidden;points=[[0,0.5],[1,0.5]];portConstraint=eastwest;rotatable=0;whiteSpace=wrap;html=1;labelBackgroundColor=none;fontColor=#5C5C5C;sketch=1;curveFitting=1;jiggle=2;" parent="r44ZlL1c5t1DEnv8SUOW-25" vertex="1">
          <mxGeometry y="30" width="240" height="70" as="geometry" />
        </mxCell>
        <mxCell id="r44ZlL1c5t1DEnv8SUOW-27" value="1&amp;nbsp;&lt;strong&gt;ChatterBot&lt;/strong&gt;: Ideal for &lt;strong&gt;rule-based&lt;/strong&gt; chatbot implementations." style="text;strokeColor=none;fillColor=none;align=left;verticalAlign=middle;spacingLeft=4;spacingRight=4;overflow=hidden;points=[[0,0.5],[1,0.5]];portConstraint=eastwest;rotatable=0;whiteSpace=wrap;html=1;labelBackgroundColor=none;fontColor=#5C5C5C;sketch=1;curveFitting=1;jiggle=2;" parent="r44ZlL1c5t1DEnv8SUOW-25" vertex="1">
          <mxGeometry y="100" width="240" height="40" as="geometry" />
        </mxCell>
        <mxCell id="r44ZlL1c5t1DEnv8SUOW-28" value="2&amp;nbsp;&lt;strong&gt;Rasa&lt;/strong&gt;: Best for &lt;strong&gt;machine learning-based&lt;/strong&gt; chatbots, capable of handling more complex conversations." style="text;strokeColor=none;fillColor=none;align=left;verticalAlign=middle;spacingLeft=4;spacingRight=4;overflow=hidden;points=[[0,0.5],[1,0.5]];portConstraint=eastwest;rotatable=0;whiteSpace=wrap;html=1;labelBackgroundColor=none;fontColor=#5C5C5C;sketch=1;curveFitting=1;jiggle=2;" parent="r44ZlL1c5t1DEnv8SUOW-25" vertex="1">
          <mxGeometry y="140" width="240" height="70" as="geometry" />
        </mxCell>
        <mxCell id="r44ZlL1c5t1DEnv8SUOW-29" style="edgeStyle=none;curved=1;rounded=0;orthogonalLoop=1;jettySize=auto;html=1;fontSize=12;startSize=8;endSize=8;labelBackgroundColor=none;strokeColor=#006658;fontColor=default;sketch=1;curveFitting=1;jiggle=2;" parent="1" source="r44ZlL1c5t1DEnv8SUOW-30" edge="1">
          <mxGeometry relative="1" as="geometry">
            <mxPoint x="585" y="1360" as="targetPoint" />
          </mxGeometry>
        </mxCell>
        <mxCell id="r44ZlL1c5t1DEnv8SUOW-30" value="Substeps" style="swimlane;fontStyle=0;childLayout=stackLayout;horizontal=1;startSize=30;horizontalStack=0;resizeParent=1;resizeParentMax=0;resizeLast=0;collapsible=1;marginBottom=0;whiteSpace=wrap;html=1;labelBackgroundColor=none;fillColor=#21C0A5;strokeColor=#006658;fontColor=#5C5C5C;sketch=1;curveFitting=1;jiggle=2;" parent="1" vertex="1">
          <mxGeometry x="460" y="1480" width="250" height="260" as="geometry">
            <mxRectangle x="460" y="1480" width="85" height="30" as="alternateBounds" />
          </mxGeometry>
        </mxCell>
        <mxCell id="r44ZlL1c5t1DEnv8SUOW-31" value="1&amp;nbsp;&lt;strong&gt;Tokenization&lt;/strong&gt;: Breaking down the user input into words or tokens." style="text;strokeColor=none;fillColor=none;align=left;verticalAlign=middle;spacingLeft=4;spacingRight=4;overflow=hidden;points=[[0,0.5],[1,0.5]];portConstraint=eastwest;rotatable=0;whiteSpace=wrap;html=1;labelBackgroundColor=none;fontColor=#5C5C5C;sketch=1;curveFitting=1;jiggle=2;" parent="r44ZlL1c5t1DEnv8SUOW-30" vertex="1">
          <mxGeometry y="30" width="250" height="50" as="geometry" />
        </mxCell>
        <mxCell id="r44ZlL1c5t1DEnv8SUOW-32" value="2&amp;nbsp;&lt;strong&gt;Part-of-Speech Tagging&lt;/strong&gt;: Identifying the parts of speech" style="text;strokeColor=none;fillColor=none;align=left;verticalAlign=middle;spacingLeft=4;spacingRight=4;overflow=hidden;points=[[0,0.5],[1,0.5]];portConstraint=eastwest;rotatable=0;whiteSpace=wrap;html=1;labelBackgroundColor=none;fontColor=#5C5C5C;sketch=1;curveFitting=1;jiggle=2;" parent="r44ZlL1c5t1DEnv8SUOW-30" vertex="1">
          <mxGeometry y="80" width="250" height="40" as="geometry" />
        </mxCell>
        <mxCell id="r44ZlL1c5t1DEnv8SUOW-33" value="3&amp;nbsp;&lt;strong&gt;Part-of-Speech Tagging&lt;/strong&gt;: Identifying the parts of speech&lt;div&gt;&lt;br&gt;&lt;div&gt;&lt;div&gt;4&amp;nbsp;&lt;span style=&quot;background-color: initial;&quot;&gt;&amp;nbsp;S&lt;/span&gt;&lt;strong style=&quot;background-color: initial;&quot;&gt;entiment Analysis&lt;/strong&gt;&lt;span style=&quot;background-color: initial;&quot;&gt;: (Optional) Analyzing the sentiment (positive, negative, neutral) behind the user input.&lt;/span&gt;&lt;/div&gt;&lt;/div&gt;&lt;/div&gt;" style="text;strokeColor=none;fillColor=none;align=left;verticalAlign=middle;spacingLeft=4;spacingRight=4;overflow=hidden;points=[[0,0.5],[1,0.5]];portConstraint=eastwest;rotatable=0;whiteSpace=wrap;html=1;labelBackgroundColor=none;fontColor=#5C5C5C;sketch=1;curveFitting=1;jiggle=2;" parent="r44ZlL1c5t1DEnv8SUOW-30" vertex="1">
          <mxGeometry y="120" width="250" height="140" as="geometry" />
        </mxCell>
        <mxCell id="r44ZlL1c5t1DEnv8SUOW-34" style="edgeStyle=none;curved=1;rounded=0;orthogonalLoop=1;jettySize=auto;html=1;fontSize=12;startSize=8;endSize=8;labelBackgroundColor=none;strokeColor=#006658;fontColor=default;sketch=1;curveFitting=1;jiggle=2;" parent="1" source="r44ZlL1c5t1DEnv8SUOW-35" edge="1">
          <mxGeometry relative="1" as="geometry">
            <mxPoint x="585" y="970" as="targetPoint" />
          </mxGeometry>
        </mxCell>
        <mxCell id="r44ZlL1c5t1DEnv8SUOW-35" value="Branching Logic" style="swimlane;fontStyle=0;childLayout=stackLayout;horizontal=1;startSize=26;fillColor=none;horizontalStack=0;resizeParent=1;resizeParentMax=0;resizeLast=0;collapsible=1;marginBottom=0;html=1;labelBackgroundColor=none;strokeColor=#006658;fontColor=#5C5C5C;sketch=1;curveFitting=1;jiggle=2;" parent="1" vertex="1">
          <mxGeometry x="460" y="1130" width="250" height="230" as="geometry">
            <mxRectangle x="460" y="1130" width="121" height="26" as="alternateBounds" />
          </mxGeometry>
        </mxCell>
        <mxCell id="r44ZlL1c5t1DEnv8SUOW-36" value="&lt;strong style=&quot;background-color: initial;&quot;&gt;Step&lt;/strong&gt;&lt;span style=&quot;background-color: initial;&quot;&gt;: The chatbot generates an appropriate response based on the branching logic.&lt;/span&gt;" style="text;strokeColor=none;fillColor=none;align=left;verticalAlign=top;spacingLeft=4;spacingRight=4;overflow=hidden;rotatable=0;points=[[0,0.5],[1,0.5]];portConstraint=eastwest;whiteSpace=wrap;html=1;labelBackgroundColor=none;fontColor=#5C5C5C;sketch=1;curveFitting=1;jiggle=2;" parent="r44ZlL1c5t1DEnv8SUOW-35" vertex="1">
          <mxGeometry y="26" width="250" height="44" as="geometry" />
        </mxCell>
        <mxCell id="r44ZlL1c5t1DEnv8SUOW-37" value="Paths:" style="text;strokeColor=none;fillColor=none;align=left;verticalAlign=top;spacingLeft=4;spacingRight=4;overflow=hidden;rotatable=0;points=[[0,0.5],[1,0.5]];portConstraint=eastwest;whiteSpace=wrap;html=1;labelBackgroundColor=none;fontColor=#5C5C5C;sketch=1;curveFitting=1;jiggle=2;" parent="r44ZlL1c5t1DEnv8SUOW-35" vertex="1">
          <mxGeometry y="70" width="250" height="30" as="geometry" />
        </mxCell>
        <mxCell id="r44ZlL1c5t1DEnv8SUOW-38" value="1&amp;nbsp;&lt;strong&gt;Rule-Based&lt;/strong&gt;:&amp;nbsp;The response is pulled from predefined rules or a database of responses.&lt;div&gt;&lt;br&gt;&lt;/div&gt;&lt;div&gt;2&amp;nbsp;&lt;strong style=&quot;background-color: initial;&quot;&gt;ML-Based&lt;/strong&gt;&lt;span style=&quot;background-color: initial;&quot;&gt;:&amp;nbsp;&lt;/span&gt;&lt;span style=&quot;background-color: initial;&quot;&gt;A response is generated dynamically, using machine learning algorithms that predict what the user might expect based on the conversation&lt;/span&gt;&lt;/div&gt;" style="text;strokeColor=none;fillColor=none;align=left;verticalAlign=top;spacingLeft=4;spacingRight=4;overflow=hidden;rotatable=0;points=[[0,0.5],[1,0.5]];portConstraint=eastwest;whiteSpace=wrap;html=1;labelBackgroundColor=none;fontColor=#5C5C5C;sketch=1;curveFitting=1;jiggle=2;" parent="r44ZlL1c5t1DEnv8SUOW-35" vertex="1">
          <mxGeometry y="100" width="250" height="130" as="geometry" />
        </mxCell>
        <mxCell id="r44ZlL1c5t1DEnv8SUOW-39" style="edgeStyle=none;curved=1;rounded=0;orthogonalLoop=1;jettySize=auto;html=1;fontSize=12;startSize=8;endSize=8;labelBackgroundColor=none;strokeColor=#006658;fontColor=default;sketch=1;curveFitting=1;jiggle=2;" parent="1" source="r44ZlL1c5t1DEnv8SUOW-40" edge="1">
          <mxGeometry relative="1" as="geometry">
            <mxPoint x="585" y="635" as="targetPoint" />
          </mxGeometry>
        </mxCell>
        <mxCell id="r44ZlL1c5t1DEnv8SUOW-40" value="Return Response to User" style="swimlane;fontStyle=0;childLayout=stackLayout;horizontal=1;startSize=26;fillColor=none;horizontalStack=0;resizeParent=1;resizeParentMax=0;resizeLast=0;collapsible=1;marginBottom=0;html=1;labelBackgroundColor=none;strokeColor=#006658;fontColor=#5C5C5C;sketch=1;curveFitting=1;jiggle=2;" parent="1" vertex="1">
          <mxGeometry x="465" y="780" width="240" height="190" as="geometry">
            <mxRectangle x="465" y="780" width="170" height="26" as="alternateBounds" />
          </mxGeometry>
        </mxCell>
        <mxCell id="r44ZlL1c5t1DEnv8SUOW-41" value="&lt;strong style=&quot;background-color: initial;&quot;&gt;1 Step&lt;/strong&gt;&lt;span style=&quot;background-color: initial;&quot;&gt;:&amp;nbsp;&lt;/span&gt;The chatbot sends the response back to the user via the user interface&lt;span style=&quot;background-color: initial;&quot;&gt;.&lt;/span&gt;" style="text;strokeColor=none;fillColor=none;align=left;verticalAlign=top;spacingLeft=4;spacingRight=4;overflow=hidden;rotatable=0;points=[[0,0.5],[1,0.5]];portConstraint=eastwest;whiteSpace=wrap;html=1;labelBackgroundColor=none;fontColor=#5C5C5C;sketch=1;curveFitting=1;jiggle=2;" parent="r44ZlL1c5t1DEnv8SUOW-40" vertex="1">
          <mxGeometry y="26" width="240" height="44" as="geometry" />
        </mxCell>
        <mxCell id="r44ZlL1c5t1DEnv8SUOW-42" value="&lt;div&gt;&lt;strong&gt;&lt;br&gt;&lt;/strong&gt;&lt;/div&gt;&lt;strong&gt;&lt;div&gt;&lt;strong&gt;&lt;br&gt;&lt;/strong&gt;&lt;/div&gt;&lt;div&gt;&lt;strong&gt;&lt;br&gt;&lt;/strong&gt;&lt;/div&gt;2 Details&lt;/strong&gt;: This can be a simple text response, a card, or even an action (e.g., performing a search, making a booking)" style="text;strokeColor=none;fillColor=none;align=left;verticalAlign=top;spacingLeft=4;spacingRight=4;overflow=hidden;rotatable=0;points=[[0,0.5],[1,0.5]];portConstraint=eastwest;whiteSpace=wrap;html=1;labelBackgroundColor=none;fontColor=#5C5C5C;sketch=1;curveFitting=1;jiggle=2;" parent="r44ZlL1c5t1DEnv8SUOW-40" vertex="1">
          <mxGeometry y="70" width="240" height="120" as="geometry" />
        </mxCell>
        <mxCell id="r44ZlL1c5t1DEnv8SUOW-43" style="edgeStyle=none;curved=1;rounded=0;orthogonalLoop=1;jettySize=auto;html=1;fontSize=12;startSize=8;endSize=8;labelBackgroundColor=none;strokeColor=#006658;fontColor=default;sketch=1;curveFitting=1;jiggle=2;" parent="1" source="r44ZlL1c5t1DEnv8SUOW-44" edge="1">
          <mxGeometry relative="1" as="geometry">
            <mxPoint x="840" y="540" as="targetPoint" />
          </mxGeometry>
        </mxCell>
        <mxCell id="r44ZlL1c5t1DEnv8SUOW-44" value="3 Platforms" style="swimlane;fontStyle=0;childLayout=stackLayout;horizontal=1;startSize=26;fillColor=none;horizontalStack=0;resizeParent=1;resizeParentMax=0;resizeLast=0;collapsible=1;marginBottom=0;html=1;labelBackgroundColor=none;strokeColor=#006658;fontColor=#5C5C5C;sketch=1;curveFitting=1;jiggle=2;" parent="1" vertex="1">
          <mxGeometry x="460" y="445" width="240" height="190" as="geometry">
            <mxRectangle x="460" y="445" width="95" height="26" as="alternateBounds" />
          </mxGeometry>
        </mxCell>
        <mxCell id="r44ZlL1c5t1DEnv8SUOW-45" value="&lt;b&gt;1&amp;nbsp;&lt;/b&gt;&lt;strong&gt;Web App&lt;/strong&gt;: The response appears as a chat bubble, popup, or other UI component." style="text;strokeColor=none;fillColor=none;align=left;verticalAlign=top;spacingLeft=4;spacingRight=4;overflow=hidden;rotatable=0;points=[[0,0.5],[1,0.5]];portConstraint=eastwest;whiteSpace=wrap;html=1;labelBackgroundColor=none;fontColor=#5C5C5C;sketch=1;curveFitting=1;jiggle=2;" parent="r44ZlL1c5t1DEnv8SUOW-44" vertex="1">
          <mxGeometry y="26" width="240" height="44" as="geometry" />
        </mxCell>
        <mxCell id="r44ZlL1c5t1DEnv8SUOW-46" value="&lt;div&gt;&lt;br&gt;&lt;/div&gt;2&amp;nbsp;&lt;strong&gt;Mobile App&lt;/strong&gt;: The response is displayed within the app interface.&lt;div&gt;&lt;/div&gt;&lt;div&gt;&lt;br&gt;&lt;/div&gt;&lt;div&gt;3&amp;nbsp;&lt;strong style=&quot;background-color: initial;&quot;&gt;Messaging Platforms&lt;/strong&gt;&lt;span style=&quot;background-color: initial;&quot;&gt;: The response is sent back as a message via platforms like WhatsApp or Messenger&lt;/span&gt;&lt;/div&gt;" style="text;strokeColor=none;fillColor=none;align=left;verticalAlign=top;spacingLeft=4;spacingRight=4;overflow=hidden;rotatable=0;points=[[0,0.5],[1,0.5]];portConstraint=eastwest;whiteSpace=wrap;html=1;labelBackgroundColor=none;fontColor=#5C5C5C;sketch=1;curveFitting=1;jiggle=2;" parent="r44ZlL1c5t1DEnv8SUOW-44" vertex="1">
          <mxGeometry y="70" width="240" height="120" as="geometry" />
        </mxCell>
        <mxCell id="r44ZlL1c5t1DEnv8SUOW-47" style="edgeStyle=none;curved=1;rounded=0;orthogonalLoop=1;jettySize=auto;html=1;fontSize=12;startSize=8;endSize=8;labelBackgroundColor=none;strokeColor=#006658;fontColor=default;sketch=1;curveFitting=1;jiggle=2;" parent="1" source="r44ZlL1c5t1DEnv8SUOW-48" edge="1">
          <mxGeometry relative="1" as="geometry">
            <mxPoint x="1170" y="535" as="targetPoint" />
          </mxGeometry>
        </mxCell>
        <mxCell id="r44ZlL1c5t1DEnv8SUOW-48" value="Integration Points" style="swimlane;whiteSpace=wrap;html=1;labelBackgroundColor=none;fillColor=#21C0A5;strokeColor=#006658;fontColor=#5C5C5C;sketch=1;curveFitting=1;jiggle=2;" parent="1" vertex="1">
          <mxGeometry x="840" y="435" width="200" height="200" as="geometry">
            <mxRectangle x="840" y="435" width="128" height="26" as="alternateBounds" />
          </mxGeometry>
        </mxCell>
        <mxCell id="r44ZlL1c5t1DEnv8SUOW-49" value="&lt;strong&gt;Step&lt;/strong&gt;: The chatbot can&lt;div&gt;&amp;nbsp;be&amp;nbsp;&lt;span style=&quot;background-color: initial;&quot;&gt;across&amp;nbsp;&lt;/span&gt;&lt;/div&gt;&lt;div&gt;&amp;nbsp; &amp;nbsp; &amp;nbsp; &amp;nbsp; &amp;nbsp; &amp;nbsp; multiple platforms&lt;/div&gt;&lt;div&gt;&amp;nbsp; &amp;nbsp; &amp;nbsp; &amp;nbsp; to communicate&lt;/div&gt;&lt;div&gt;with users.&lt;/div&gt;" style="text;html=1;align=center;verticalAlign=middle;resizable=0;points=[];autosize=1;strokeColor=none;fillColor=none;fontSize=16;labelBackgroundColor=none;fontColor=#5C5C5C;sketch=1;curveFitting=1;jiggle=2;" parent="r44ZlL1c5t1DEnv8SUOW-48" vertex="1">
          <mxGeometry x="-15" y="36" width="210" height="110" as="geometry" />
        </mxCell>
        <mxCell id="r44ZlL1c5t1DEnv8SUOW-50" style="edgeStyle=none;curved=1;rounded=0;orthogonalLoop=1;jettySize=auto;html=1;fontSize=12;startSize=8;endSize=8;labelBackgroundColor=none;strokeColor=#006658;fontColor=default;sketch=1;curveFitting=1;jiggle=2;" parent="1" source="r44ZlL1c5t1DEnv8SUOW-51" target="r44ZlL1c5t1DEnv8SUOW-55" edge="1">
          <mxGeometry relative="1" as="geometry">
            <mxPoint x="1295" y="789.9999999999998" as="targetPoint" />
          </mxGeometry>
        </mxCell>
        <mxCell id="r44ZlL1c5t1DEnv8SUOW-51" value="Integration Types" style="swimlane;fontStyle=0;childLayout=stackLayout;horizontal=1;startSize=30;horizontalStack=0;resizeParent=1;resizeParentMax=0;resizeLast=0;collapsible=1;marginBottom=0;whiteSpace=wrap;html=1;labelBackgroundColor=none;fillColor=#21C0A5;strokeColor=#006658;fontColor=#5C5C5C;sketch=1;curveFitting=1;jiggle=2;" parent="1" vertex="1">
          <mxGeometry x="1170" y="400" width="250" height="270" as="geometry">
            <mxRectangle x="1170" y="400" width="127" height="30" as="alternateBounds" />
          </mxGeometry>
        </mxCell>
        <mxCell id="r44ZlL1c5t1DEnv8SUOW-52" value="1&amp;nbsp;&lt;strong&gt;Web App Integration&lt;/strong&gt;: The chatbot can be embedded using a JavaScript widget or integrated via REST API to respond to user queries within the website" style="text;strokeColor=none;fillColor=none;align=left;verticalAlign=middle;spacingLeft=4;spacingRight=4;overflow=hidden;points=[[0,0.5],[1,0.5]];portConstraint=eastwest;rotatable=0;whiteSpace=wrap;html=1;labelBackgroundColor=none;fontColor=#5C5C5C;sketch=1;curveFitting=1;jiggle=2;" parent="r44ZlL1c5t1DEnv8SUOW-51" vertex="1">
          <mxGeometry y="30" width="250" height="80" as="geometry" />
        </mxCell>
        <mxCell id="r44ZlL1c5t1DEnv8SUOW-53" value="2&amp;nbsp;&lt;strong&gt;Mobile App Integration&lt;/strong&gt;: The chatbot communicates with the app using APIs, processing requests and displaying responses in the app interface." style="text;strokeColor=none;fillColor=none;align=left;verticalAlign=middle;spacingLeft=4;spacingRight=4;overflow=hidden;points=[[0,0.5],[1,0.5]];portConstraint=eastwest;rotatable=0;whiteSpace=wrap;html=1;labelBackgroundColor=none;fontColor=#5C5C5C;sketch=1;curveFitting=1;jiggle=2;" parent="r44ZlL1c5t1DEnv8SUOW-51" vertex="1">
          <mxGeometry y="110" width="250" height="70" as="geometry" />
        </mxCell>
        <mxCell id="r44ZlL1c5t1DEnv8SUOW-54" value="3&amp;nbsp;&lt;strong&gt;Messaging Platforms&lt;/strong&gt;: The chatbot can respond to messages via messaging platforms like WhatsApp, Telegram, or Facebook Messenger through their respective APIs." style="text;strokeColor=none;fillColor=none;align=left;verticalAlign=middle;spacingLeft=4;spacingRight=4;overflow=hidden;points=[[0,0.5],[1,0.5]];portConstraint=eastwest;rotatable=0;whiteSpace=wrap;html=1;labelBackgroundColor=none;fontColor=#5C5C5C;sketch=1;curveFitting=1;jiggle=2;" parent="r44ZlL1c5t1DEnv8SUOW-51" vertex="1">
          <mxGeometry y="180" width="250" height="90" as="geometry" />
        </mxCell>
        <mxCell id="r44ZlL1c5t1DEnv8SUOW-55" value="End" style="ellipse;whiteSpace=wrap;html=1;labelBackgroundColor=none;fillColor=#21C0A5;strokeColor=#006658;fontColor=#5C5C5C;sketch=1;curveFitting=1;jiggle=2;" parent="1" vertex="1">
          <mxGeometry x="1235" y="769.9999999999998" width="120" height="80" as="geometry" />
        </mxCell>
        <mxCell id="r44ZlL1c5t1DEnv8SUOW-56" value="Start" style="ellipse;whiteSpace=wrap;html=1;labelBackgroundColor=none;fillColor=#21C0A5;strokeColor=#006658;fontColor=#5C5C5C;sketch=1;curveFitting=1;jiggle=2;" parent="1" vertex="1">
          <mxGeometry x="150" y="445" width="120" height="80" as="geometry" />
        </mxCell>
      </root>
    </mxGraphModel>
  </diagram>
</mxfile>
